<svg width="33" height="40" viewBox="0 0 33 40" fill="none" xmlns="http://www.w3.org/2000/svg">
<path fill-rule="evenodd" clip-rule="evenodd" d="M26.1108 21.2055L25.336 20.8491L25.2731 19.9977C25.07 17.2575 22.756 15.1106 20.0038 15.1106C19.5183 15.1106 19.0267 15.1794 18.5421 15.3154L17.6924 15.553L17.0924 14.9074C15.7624 13.4767 13.8788 12.6562 11.9238 12.6562C8.57675 12.6562 5.66704 15.0417 5.00849 18.3293L4.85439 19.0989L4.12352 19.3899C1.65716 20.367 0 22.8024 0 25.4504C0 29.0453 2.92692 31.9722 6.52274 31.9722H23.7641C26.8709 31.9722 29.3984 29.4413 29.3984 26.3302C29.3975 24.1367 28.108 22.1249 26.1108 21.2055Z" fill="#D5DCE2"/>
<path fill-rule="evenodd" clip-rule="evenodd" d="M21.586 11.4279C19.2729 8.50961 17.8249 3.44086 21.0833 0C19.8298 0.35984 18.6203 0.958138 17.5313 1.81642C15.6736 3.27816 14.5924 5.2831 14.1817 7.40426C13.9984 8.87978 13.9639 10.2856 14.0001 11.6388C15.5505 12.0357 16.977 12.8613 18.0823 14.0475L18.1219 14.0906L18.1761 14.0751C18.7805 13.9063 19.3951 13.8203 20.0037 13.8203C23.4067 13.8203 26.2656 16.439 26.5962 19.8067C27.9099 19.5527 29.1883 19.0224 30.3478 18.1091C31.4394 17.2525 32.3037 16.2195 32.9476 15.0831C28.8362 17.4385 24.1772 14.6957 21.586 11.4279Z" fill="#7694B4"/>
<path fill-rule="evenodd" clip-rule="evenodd" d="M21.1786 38.9016C20.0397 41.1002 17.4408 39.6617 18.5341 37.5397C19.4621 35.7362 21.6917 34.6455 21.6917 34.6455C21.6917 34.6455 22.0791 37.1558 21.1786 38.9016ZM9.80582 38.9016C8.6669 41.1002 6.06797 39.6617 7.16126 37.5397C8.08927 35.7362 10.3189 34.6455 10.3189 34.6455C10.3189 34.6455 10.7063 37.1558 9.80582 38.9016Z" fill="#009EFF"/>
</svg>
