<svg width="40" height="31" viewBox="0 0 40 31" fill="none" xmlns="http://www.w3.org/2000/svg">
<path fill-rule="evenodd" clip-rule="evenodd" d="M33.4559 19.3145C35.4442 20.2302 36.7275 22.2314 36.7275 24.4142C36.7275 27.5102 34.2123 30.0288 31.1206 30.0288H13.9632C10.3849 30.0288 7.47226 27.1162 7.47226 23.5387C7.47226 20.9036 9.12135 18.4801 11.5757 17.5078L12.3039 17.2182L12.4564 16.4523C13.1117 13.1807 16.0073 10.8069 19.338 10.8069C21.2835 10.8069 23.1579 11.6233 24.4814 13.0471L25.0785 13.6896L25.9241 13.4531C26.4064 13.3178 26.8955 13.2492 27.3787 13.2492C30.1175 13.2492 32.4202 15.3858 32.6224 18.1126L32.6849 18.9598L33.4559 19.3145ZM32.4973 9.1321C36.7721 9.96906 39.9991 13.7316 40 18.2505C40 20.399 39.2641 22.3711 38.0399 23.9448C37.8669 21.4253 36.3395 19.1594 34.0204 18.0911L33.9699 18.068L33.9656 18.0132C33.7523 15.1356 31.6689 12.8038 28.9721 12.1236L28.937 11.7878C28.6954 9.4285 27.042 7.2697 24.6211 6.15089C23.5648 5.6643 22.416 5.4073 21.2989 5.4073C20.4577 5.4073 19.6421 5.5495 18.8951 5.82449C17.7977 4.91814 16.5393 4.27735 15.2088 3.93211C16.953 1.55228 19.7595 0 22.9369 0C28.0769 0 32.2591 4.05033 32.4973 9.1321ZM6.12644 23.5387C6.12644 24.3757 6.26093 25.1809 6.50594 25.9382C6.2892 25.9391 6.147 25.9391 6.13672 25.9382C2.43848 25.4302 -0.361977 22.0738 0.0380881 18.1597C0.313936 15.4483 2.25001 13.1884 4.78232 12.1836L5.23893 12.0028C5.27062 11.9908 5.2929 11.9634 5.29975 11.93L5.39142 11.4708C5.85916 9.13467 7.24867 7.02212 9.3458 5.89046C12.4178 4.23195 15.931 4.96354 18.3014 7.08808C18.4205 7.19431 18.5267 7.3091 18.6355 7.42133C20.115 6.58436 22.1539 6.49527 24.0574 7.37335C26.1108 8.32169 27.4138 10.1198 27.598 11.9257C27.5243 11.9223 27.4541 11.9043 27.3804 11.9043C26.7747 11.9043 26.1622 11.9899 25.5617 12.1579L25.5069 12.1733L25.4675 12.1304C23.8903 10.4342 21.6561 9.46191 19.3389 9.46191C15.3665 9.46191 11.9175 12.2898 11.1371 16.1885L11.1268 16.2382L11.0797 16.257C8.11648 17.4307 6.12644 20.357 6.12644 23.5387Z" fill="#D5DCE2"/>
</svg>
