<svg width="40" height="40" viewBox="0 0 40 40" fill="none" xmlns="http://www.w3.org/2000/svg">
<path fill-rule="evenodd" clip-rule="evenodd" d="M20.9161 8.23237C24.0592 8.47553 26.92 9.92917 28.97 12.3258C31.0168 14.7204 32.0116 17.7693 31.7621 20.9134C31.3456 26.3527 27.123 30.8785 21.728 31.6757C20.8569 31.8036 19.9656 31.8342 19.0797 31.7666C12.5894 31.2581 7.72301 25.5682 8.2273 19.0824C8.64808 13.6452 12.8706 9.11936 18.2677 8.32223C19.1368 8.19326 20.0291 8.16365 20.9161 8.23237ZM26.8408 31.5932C27.0871 31.4473 27.3292 31.2929 27.565 31.1301C27.6379 31.0805 27.7172 31.0382 27.7891 30.9874L28.1285 38.3983L22.8783 33.1684C24.185 32.8819 25.4188 32.4019 26.5553 31.7623C26.6526 31.7084 26.7456 31.6503 26.8408 31.5932ZM18.9486 33.4475C19.7183 33.5078 20.49 33.4813 21.2544 33.4084L17.8311 40L15.9027 32.8386C16.8733 33.1483 17.8893 33.364 18.9486 33.4475ZM10.0352 29.0654C11.2446 30.3933 12.7131 31.4769 14.374 32.2423L8.11735 36.2353L10.0352 29.0654ZM6.82225 22.8883C7.21554 24.6728 7.963 26.3347 8.9959 27.7884L1.59429 28.1267L6.82225 22.8883ZM6.54526 18.9513C6.48394 19.7294 6.50615 20.4958 6.57804 21.2464L0 17.8349L7.15739 15.9065C6.84128 16.8834 6.62667 17.9004 6.54526 18.9513ZM9.09528 12.1102C8.58042 12.8185 8.12792 13.5733 7.75472 14.3726L3.7616 8.12242L10.9359 10.0381C10.6124 10.333 10.3079 10.6481 10.013 10.9737C9.98969 11.0001 9.96749 11.0286 9.94212 11.0551C9.67675 11.3543 9.42513 11.664 9.18515 11.9854C9.15449 12.0266 9.12594 12.0689 9.09528 12.1102ZM13.1603 8.40047C12.9087 8.55059 12.6634 8.70705 12.4234 8.87197C12.3536 8.91849 12.2786 8.95866 12.2099 9.0073L11.8705 1.59636L17.1196 6.82842C15.8129 7.11597 14.578 7.59488 13.4415 8.23449C13.3474 8.28735 13.2544 8.34549 13.1603 8.40047ZM21.0451 6.55143C20.2765 6.49117 19.5068 6.5176 18.7435 6.58843L22.1636 0L24.0941 7.15509C23.113 6.84533 22.0959 6.63178 21.0451 6.55143ZM25.6334 7.75029L31.8795 3.76044L29.9617 10.9219C28.7258 9.56549 27.2584 8.49667 25.6334 7.75029ZM31.0073 12.2043L38.4047 11.8649L33.1809 17.1012C32.7993 15.3494 32.0624 13.6896 31.0073 12.2043ZM33.4209 18.7441L40 22.1556L32.8341 24.0924C33.1503 23.1145 33.3659 22.0964 33.4463 21.0424C33.5065 20.2685 33.4896 19.501 33.4209 18.7441ZM29.0578 29.9567C30.3867 28.7462 31.4714 27.2746 32.2347 25.6095L36.2416 31.8712L29.0578 29.9567Z" fill="#FFCE00"/>
</svg>
