<svg width="11" height="12" viewBox="0 0 11 12" fill="none" xmlns="http://www.w3.org/2000/svg">
<g opacity="0.5">
<mask id="path-1-outside-1_1_2807" maskUnits="userSpaceOnUse" x="0" y="0" width="11" height="6" fill="black">
<rect fill="white" width="11" height="6"/>
<path fill-rule="evenodd" clip-rule="evenodd" d="M4.8726 1.25855C4.83809 1.20234 4.791 1.15253 4.73403 1.11197C4.67718 1.07129 4.61154 1.04064 4.54087 1.02178C4.47021 1.00291 4.39591 0.996206 4.32222 1.00204C4.24853 1.00787 4.17691 1.02613 4.11145 1.05578C4.04599 1.08542 3.98799 1.12585 3.94076 1.17477L1.12774 4.0735L1.0771 4.14597L1.03772 4.20878C0.987426 4.3207 0.987426 4.4447 1.03772 4.55662L1.0771 4.61943L1.12774 4.6919L1.29805 4.8674H2.76645L2.76491 4.86582L9.43739 4.86582C9.58661 4.86582 9.72971 4.81492 9.83521 4.72432C9.94072 4.63372 10 4.51083 10 4.3827C10 4.25457 9.94072 4.13169 9.83521 4.04108C9.72971 3.95048 9.58661 3.89958 9.43739 3.89958L2.76491 3.89958L4.80717 1.79317C4.85454 1.74435 4.89023 1.68799 4.9122 1.62731C4.93416 1.56662 4.94197 1.50282 4.93518 1.43954C4.92838 1.37626 4.90712 1.31476 4.8726 1.25855Z"/>
</mask>
<path fill-rule="evenodd" clip-rule="evenodd" d="M4.8726 1.25855C4.83809 1.20234 4.791 1.15253 4.73403 1.11197C4.67718 1.07129 4.61154 1.04064 4.54087 1.02178C4.47021 1.00291 4.39591 0.996206 4.32222 1.00204C4.24853 1.00787 4.17691 1.02613 4.11145 1.05578C4.04599 1.08542 3.98799 1.12585 3.94076 1.17477L1.12774 4.0735L1.0771 4.14597L1.03772 4.20878C0.987426 4.3207 0.987426 4.4447 1.03772 4.55662L1.0771 4.61943L1.12774 4.6919L1.29805 4.8674H2.76645L2.76491 4.86582L9.43739 4.86582C9.58661 4.86582 9.72971 4.81492 9.83521 4.72432C9.94072 4.63372 10 4.51083 10 4.3827C10 4.25457 9.94072 4.13169 9.83521 4.04108C9.72971 3.95048 9.58661 3.89958 9.43739 3.89958L2.76491 3.89958L4.80717 1.79317C4.85454 1.74435 4.89023 1.68799 4.9122 1.62731C4.93416 1.56662 4.94197 1.50282 4.93518 1.43954C4.92838 1.37626 4.90712 1.31476 4.8726 1.25855Z" fill="#76767A"/>
<path d="M4.73403 1.11197L4.50126 1.43727L4.50204 1.43782L4.73403 1.11197ZM4.54087 1.02178L4.43771 1.40824L4.43771 1.40824L4.54087 1.02178ZM4.32222 1.00204L4.29065 0.603288H4.29065L4.32222 1.00204ZM4.11145 1.05578L4.27645 1.42016V1.42016L4.11145 1.05578ZM3.94076 1.17477L4.22781 1.45334L4.22853 1.4526L3.94076 1.17477ZM1.12774 4.0735L0.840683 3.79494L0.818275 3.81803L0.799846 3.8444L1.12774 4.0735ZM1.0771 4.14597L0.749212 3.91687L0.743507 3.92503L0.738216 3.93347L1.0771 4.14597ZM1.03772 4.20878L0.698834 3.99628L0.684175 4.01966L0.672865 4.04483L1.03772 4.20878ZM1.03772 4.55662L0.672865 4.72057L0.684175 4.74574L0.698834 4.76912L1.03772 4.55662ZM1.0771 4.61943L0.738216 4.83193L0.743507 4.84037L0.749212 4.84853L1.0771 4.61943ZM1.12774 4.6919L0.799847 4.921L0.818275 4.94737L0.840683 4.97047L1.12774 4.6919ZM1.29805 4.8674L1.011 5.14597L1.12884 5.2674H1.29805V4.8674ZM2.76645 4.8674V5.2674H3.71137L3.05363 4.58897L2.76645 4.8674ZM2.76491 4.86582L2.76491 4.46582H1.81999L2.47773 5.14425L2.76491 4.86582ZM9.43739 4.86582V5.26582V4.86582ZM9.83521 4.72432L9.57462 4.42085L9.57462 4.42085L9.83521 4.72432ZM9.83521 4.04108L9.57462 4.34455L9.57462 4.34455L9.83521 4.04108ZM9.43739 3.89958V4.29958V3.89958ZM2.76491 3.89958L2.47773 3.62114L1.81996 4.29958H2.76491V3.89958ZM4.80717 1.79317L4.5201 1.51461L4.51998 1.51473L4.80717 1.79317ZM4.9122 1.62731L4.53608 1.49115L4.53608 1.49115L4.9122 1.62731ZM4.93518 1.43954L4.53746 1.48224V1.48224L4.93518 1.43954ZM4.50204 1.43782C4.51793 1.44914 4.52699 1.46013 4.53174 1.46786L5.21347 1.04923C5.14918 0.944545 5.06406 0.855913 4.96602 0.786113L4.50204 1.43782ZM4.43771 1.40824C4.46402 1.41527 4.48537 1.4259 4.50126 1.43727L4.9668 0.786671C4.86899 0.716681 4.75906 0.666011 4.64404 0.635308L4.43771 1.40824ZM4.35379 1.40079C4.38268 1.3985 4.41141 1.40122 4.43771 1.40824L4.64404 0.635309C4.52901 0.604603 4.40913 0.593908 4.29065 0.603288L4.35379 1.40079ZM4.27645 1.42016C4.29854 1.41015 4.32488 1.40308 4.35379 1.40079L4.29065 0.603288C4.17217 0.612668 4.05527 0.642115 3.94645 0.691392L4.27645 1.42016ZM4.22853 1.4526C4.23871 1.44206 4.25437 1.43016 4.27645 1.42016L3.94645 0.691392C3.83761 0.740676 3.73727 0.80965 3.65299 0.896946L4.22853 1.4526ZM1.41479 4.35207L4.22781 1.45334L3.6537 0.896207L0.840683 3.79494L1.41479 4.35207ZM1.40499 4.37507L1.45563 4.3026L0.799846 3.8444L0.749212 3.91687L1.40499 4.37507ZM1.37661 4.42127L1.41599 4.35847L0.738216 3.93347L0.698834 3.99628L1.37661 4.42127ZM1.40258 4.39267C1.40025 4.3875 1.4 4.38433 1.4 4.3827C1.4 4.38107 1.40025 4.3779 1.40258 4.37273L0.672865 4.04483C0.575712 4.26103 0.575712 4.50437 0.672865 4.72057L1.40258 4.39267ZM1.41599 4.40693L1.37661 4.34413L0.698834 4.76912L0.738216 4.83193L1.41599 4.40693ZM1.45563 4.4628L1.40499 4.39033L0.749212 4.84853L0.799847 4.921L1.45563 4.4628ZM1.58511 4.58883L1.41479 4.41333L0.840683 4.97047L1.011 5.14597L1.58511 4.58883ZM1.29805 5.2674H2.76645V4.4674H1.29805V5.2674ZM2.47773 5.14425L2.47926 5.14583L3.05363 4.58897L3.0521 4.58739L2.47773 5.14425ZM9.43739 4.46582L2.76491 4.46582L2.76491 5.26582H9.43739V4.46582ZM9.57462 4.42085C9.54717 4.44443 9.49854 4.46582 9.43739 4.46582V5.26582C9.67467 5.26582 9.91224 5.18542 10.0958 5.02778L9.57462 4.42085ZM9.6 4.3827C9.6 4.38443 9.59971 4.38796 9.59689 4.3938C9.59398 4.39985 9.58762 4.40969 9.57462 4.42085L10.0958 5.02778C10.2813 4.86853 10.4 4.63829 10.4 4.3827H9.6ZM9.57462 4.34455C9.58762 4.35571 9.59398 4.36555 9.59689 4.3716C9.59971 4.37744 9.6 4.38097 9.6 4.3827H10.4C10.4 4.12712 10.2813 3.89687 10.0958 3.73762L9.57462 4.34455ZM9.43739 4.29958C9.49854 4.29958 9.54717 4.32098 9.57462 4.34455L10.0958 3.73762C9.91224 3.57998 9.67467 3.49958 9.43739 3.49958V4.29958ZM2.76491 4.29958L9.43739 4.29958V3.49958L2.76491 3.49958L2.76491 4.29958ZM4.51998 1.51473L2.47773 3.62114L3.0521 4.17801L5.09435 2.07161L4.51998 1.51473ZM4.53608 1.49115C4.53442 1.49574 4.53022 1.50418 4.5201 1.51461L5.09423 2.07173C5.17885 1.98452 5.24604 1.88023 5.28831 1.76346L4.53608 1.49115ZM4.53746 1.48224C4.53767 1.48416 4.53764 1.48684 4.53608 1.49115L5.28831 1.76346C5.33068 1.64641 5.34627 1.52147 5.33289 1.39684L4.53746 1.48224ZM4.53174 1.46786C4.53633 1.47534 4.53725 1.48021 4.53746 1.48224L5.33289 1.39684C5.31952 1.27231 5.27791 1.15417 5.21347 1.04923L4.53174 1.46786Z" fill="#76767A" mask="url(#path-1-outside-1_1_2807)"/>
<mask id="path-3-outside-2_1_2807" maskUnits="userSpaceOnUse" x="0" y="6.36035" width="11" height="6" fill="black">
<rect fill="white" y="6.36035" width="11" height="6"/>
<path fill-rule="evenodd" clip-rule="evenodd" d="M6.1274 11.1018C6.16191 11.158 6.209 11.2078 6.26597 11.2484C6.32282 11.2891 6.38846 11.3197 6.45913 11.3386C6.52979 11.3574 6.60409 11.3641 6.67778 11.3583C6.75147 11.3525 6.82309 11.3342 6.88855 11.3046C6.95401 11.2749 7.01201 11.2345 7.05924 11.1856L9.87226 8.28685L9.9229 8.21438L9.96228 8.15157C10.0126 8.03965 10.0126 7.91565 9.96228 7.80373L9.9229 7.74092L9.87226 7.66845L9.70195 7.49295H8.23355L8.23509 7.49453L1.56261 7.49453C1.41339 7.49453 1.27029 7.54543 1.16479 7.63603C1.05928 7.72664 1 7.84952 1 7.97765C1 8.10578 1.05928 8.22867 1.16479 8.31927C1.27029 8.40987 1.41339 8.46077 1.56261 8.46077L8.23509 8.46077L6.19283 10.5672C6.14546 10.616 6.10977 10.6724 6.0878 10.733C6.06584 10.7937 6.05803 10.8575 6.06482 10.9208C6.07162 10.9841 6.09288 11.0456 6.1274 11.1018Z"/>
</mask>
<path fill-rule="evenodd" clip-rule="evenodd" d="M6.1274 11.1018C6.16191 11.158 6.209 11.2078 6.26597 11.2484C6.32282 11.2891 6.38846 11.3197 6.45913 11.3386C6.52979 11.3574 6.60409 11.3641 6.67778 11.3583C6.75147 11.3525 6.82309 11.3342 6.88855 11.3046C6.95401 11.2749 7.01201 11.2345 7.05924 11.1856L9.87226 8.28685L9.9229 8.21438L9.96228 8.15157C10.0126 8.03965 10.0126 7.91565 9.96228 7.80373L9.9229 7.74092L9.87226 7.66845L9.70195 7.49295H8.23355L8.23509 7.49453L1.56261 7.49453C1.41339 7.49453 1.27029 7.54543 1.16479 7.63603C1.05928 7.72664 1 7.84952 1 7.97765C1 8.10578 1.05928 8.22867 1.16479 8.31927C1.27029 8.40987 1.41339 8.46077 1.56261 8.46077L8.23509 8.46077L6.19283 10.5672C6.14546 10.616 6.10977 10.6724 6.0878 10.733C6.06584 10.7937 6.05803 10.8575 6.06482 10.9208C6.07162 10.9841 6.09288 11.0456 6.1274 11.1018Z" fill="#76767A"/>
<path d="M6.26597 11.2484L6.49874 10.9231L6.49796 10.9225L6.26597 11.2484ZM6.45913 11.3386L6.56229 10.9521L6.56229 10.9521L6.45913 11.3386ZM6.67778 11.3583L6.70935 11.7571H6.70935L6.67778 11.3583ZM6.88855 11.3046L6.72355 10.9402V10.9402L6.88855 11.3046ZM7.05924 11.1856L6.77219 10.907L6.77147 10.9077L7.05924 11.1856ZM9.87226 8.28685L10.1593 8.56542L10.1817 8.54233L10.2002 8.51595L9.87226 8.28685ZM9.9229 8.21438L10.2508 8.44348L10.2565 8.43532L10.2618 8.42688L9.9229 8.21438ZM9.96228 8.15157L10.3012 8.36407L10.3158 8.34069L10.3271 8.31552L9.96228 8.15157ZM9.96228 7.80373L10.3271 7.63978L10.3158 7.61461L10.3012 7.59123L9.96228 7.80373ZM9.9229 7.74092L10.2618 7.52842L10.2565 7.51999L10.2508 7.51182L9.9229 7.74092ZM9.87226 7.66845L10.2002 7.43935L10.1817 7.41298L10.1593 7.38989L9.87226 7.66845ZM9.70195 7.49295L9.989 7.21438L9.87116 7.09295H9.70195V7.49295ZM8.23355 7.49295V7.09295H7.28863L7.94637 7.77138L8.23355 7.49295ZM8.23509 7.49453L8.23509 7.89453H9.18001L8.52227 7.2161L8.23509 7.49453ZM1.56261 7.49453V7.09453V7.49453ZM1.16479 7.63603L1.42538 7.9395L1.42538 7.9395L1.16479 7.63603ZM1.16479 8.31927L1.42538 8.0158L1.42538 8.0158L1.16479 8.31927ZM1.56261 8.46077V8.06077V8.46077ZM8.23509 8.46077L8.52227 8.73921L9.18004 8.06077H8.23509V8.46077ZM6.19283 10.5672L6.4799 10.8457L6.48002 10.8456L6.19283 10.5672ZM6.0878 10.733L6.46392 10.8692L6.46392 10.8692L6.0878 10.733ZM6.06482 10.9208L6.46254 10.8781V10.8781L6.06482 10.9208ZM6.49796 10.9225C6.48207 10.9112 6.47301 10.9002 6.46826 10.8925L5.78653 11.3111C5.85082 11.4158 5.93594 11.5044 6.03398 11.5742L6.49796 10.9225ZM6.56229 10.9521C6.53598 10.9451 6.51463 10.9345 6.49874 10.9231L6.0332 11.5737C6.13101 11.6437 6.24094 11.6943 6.35596 11.725L6.56229 10.9521ZM6.64621 10.9596C6.61732 10.9618 6.58859 10.9591 6.56229 10.9521L6.35596 11.725C6.47099 11.7557 6.59087 11.7664 6.70935 11.7571L6.64621 10.9596ZM6.72355 10.9402C6.70146 10.9502 6.67512 10.9573 6.64621 10.9596L6.70935 11.7571C6.82783 11.7477 6.94473 11.7182 7.05355 11.669L6.72355 10.9402ZM6.77147 10.9077C6.76129 10.9183 6.74563 10.9302 6.72355 10.9402L7.05355 11.669C7.16239 11.6197 7.26273 11.5507 7.34701 11.4634L6.77147 10.9077ZM9.58521 8.00828L6.77219 10.907L7.3463 11.4641L10.1593 8.56542L9.58521 8.00828ZM9.59501 7.98528L9.54437 8.05775L10.2002 8.51595L10.2508 8.44348L9.59501 7.98528ZM9.62339 7.93908L9.58401 8.00188L10.2618 8.42688L10.3012 8.36407L9.62339 7.93908ZM9.59742 7.96768C9.59975 7.97285 9.6 7.97602 9.6 7.97765C9.6 7.97928 9.59975 7.98245 9.59742 7.98762L10.3271 8.31552C10.4243 8.09932 10.4243 7.85598 10.3271 7.63978L9.59742 7.96768ZM9.58401 7.95342L9.62339 8.01623L10.3012 7.59123L10.2618 7.52842L9.58401 7.95342ZM9.54437 7.89755L9.59501 7.97002L10.2508 7.51182L10.2002 7.43935L9.54437 7.89755ZM9.41489 7.77152L9.58521 7.94702L10.1593 7.38989L9.989 7.21438L9.41489 7.77152ZM9.70195 7.09295H8.23355V7.89295H9.70195V7.09295ZM8.52227 7.2161L8.52074 7.21452L7.94637 7.77138L7.9479 7.77296L8.52227 7.2161ZM1.56261 7.89453L8.23509 7.89453L8.23509 7.09453H1.56261V7.89453ZM1.42538 7.9395C1.45283 7.91593 1.50146 7.89453 1.56261 7.89453V7.09453C1.32533 7.09453 1.08776 7.17493 0.904191 7.33257L1.42538 7.9395ZM1.4 7.97765C1.4 7.97592 1.40029 7.97239 1.40311 7.96655C1.40602 7.9605 1.41238 7.95066 1.42538 7.9395L0.904193 7.33257C0.718736 7.49182 0.600003 7.72207 0.600003 7.97765H1.4ZM1.42538 8.0158C1.41238 8.00464 1.40602 7.9948 1.40311 7.98875C1.40029 7.98291 1.4 7.97938 1.4 7.97765H0.600003C0.600003 8.23324 0.718735 8.46348 0.904193 8.62273L1.42538 8.0158ZM1.56261 8.06077C1.50146 8.06077 1.45283 8.03938 1.42538 8.0158L0.904191 8.62273C1.08776 8.78037 1.32533 8.86077 1.56261 8.86077V8.06077ZM8.23509 8.06077L1.56261 8.06077V8.86077L8.23509 8.86077L8.23509 8.06077ZM6.48002 10.8456L8.52227 8.73921L7.9479 8.18234L5.90565 10.2887L6.48002 10.8456ZM6.46392 10.8692C6.46558 10.8646 6.46978 10.8562 6.4799 10.8457L5.90577 10.2886C5.82115 10.3758 5.75396 10.4801 5.71169 10.5969L6.46392 10.8692ZM6.46254 10.8781C6.46233 10.8762 6.46236 10.8735 6.46392 10.8692L5.71169 10.5969C5.66932 10.7139 5.65373 10.8389 5.66711 10.9635L6.46254 10.8781ZM6.46826 10.8925C6.46367 10.885 6.46275 10.8801 6.46254 10.8781L5.66711 10.9635C5.68048 11.088 5.72209 11.2062 5.78653 11.3111L6.46826 10.8925Z" fill="#76767A" mask="url(#path-3-outside-2_1_2807)"/>
</g>
</svg>
