<svg width="25" height="23" viewBox="0 0 25 23" fill="none" xmlns="http://www.w3.org/2000/svg">
<path fill-rule="evenodd" clip-rule="evenodd" d="M17.8573 9.06397V7.94877C17.8573 4.86972 15.3609 2.37365 12.2821 2.37365C9.49358 2.37365 7.20762 4.40302 6.77276 7.04562C6.40453 6.91182 6.00304 6.83382 5.59124 6.83382C3.74311 6.83382 2.24548 8.3316 2.24548 10.1789C2.24548 11.4167 2.91494 12.4986 3.9184 13.0784V13.0671C4.47573 13.3792 4.63147 14.0817 4.33107 14.5946C4.01865 15.1189 3.36106 15.3085 2.80279 14.996V15.0072C1.13081 14.0484 0.0151978 12.2421 0.0151978 10.1789C0.0151978 7.09985 2.51164 4.60367 5.59124 4.60367C6.70599 1.9831 9.27109 0.143372 12.2821 0.143372C16.1065 0.143372 19.24 3.10957 19.5303 6.86737L20.0876 6.83382C22.5506 6.83382 24.5481 8.831 24.5481 11.2941C24.5481 12.9668 23.656 14.3831 22.3179 15.1524C21.7605 15.4535 21.1021 15.275 20.7905 14.7397C20.4891 14.2046 20.645 13.5243 21.2022 13.2121V13.2233C21.8718 12.8439 22.3179 12.1193 22.3179 11.2941C22.3179 10.0624 21.3191 9.06397 20.0876 9.06397H17.8573ZM17.8573 11.2941C18.448 11.4502 18.8051 12.0634 18.6492 12.6545L17.1998 18.0404C17.0431 18.6425 16.4302 18.9881 15.8385 18.8319C15.2366 18.6761 14.8908 18.0629 15.0697 17.4716L16.497 12.0857C16.6527 11.4836 17.2667 11.1378 17.8573 11.2941ZM13.3968 11.2941C13.9876 11.4502 14.3446 12.0634 14.1888 12.6545L11.8805 21.2742C11.7239 21.8873 11.1109 22.2218 10.509 22.0657C9.91739 21.8873 9.56035 21.2962 9.71703 20.6941L12.0364 12.0857C12.1921 11.4836 12.8061 11.1378 13.3968 11.2941ZM8.93635 11.2941C9.52697 11.4502 9.88402 12.0634 9.72818 12.6545L8.27879 18.0404C8.12211 18.6425 7.50908 18.9881 6.91837 18.8319C6.31557 18.6761 5.96967 18.0629 6.14868 17.4716L7.57585 12.0857C7.73166 11.4836 8.34556 11.1378 8.93635 11.2941Z" fill="#B3B3B3"/>
</svg>
