<svg width="20" height="20" viewBox="0 0 20 20" fill="none" xmlns="http://www.w3.org/2000/svg">
<g opacity="0.2" clip-path="url(#clip0_1_2797)">
<path d="M-6.23229e-07 3.75L-7.68364e-08 16.25C-3.44688e-08 17.2193 0.788555 18.0078 1.75781 18.0078L18.2422 18.0078C19.2114 18.0078 20 17.2193 20 16.25L20 3.75C20 2.78074 19.2114 1.99219 18.2422 1.99219L1.75781 1.99219C0.788554 1.99219 -6.65596e-07 2.78074 -6.23229e-07 3.75ZM18.8086 9.21875L18.8086 10.7812C18.8086 11.1048 18.5462 11.3672 18.2227 11.3672C17.8991 11.3672 17.6367 11.1048 17.6367 10.7812L17.6367 9.21875C17.6367 8.89516 17.8991 8.63281 18.2227 8.63281C18.5462 8.63281 18.8086 8.89516 18.8086 9.21875ZM15.8594 3.94531C16.183 3.94531 16.4453 4.20766 16.4453 4.53125L16.4453 15.4687C16.4453 15.7923 16.183 16.0547 15.8594 16.0547L3.35937 16.0547C3.03578 16.0547 2.77344 15.7923 2.77344 15.4687L2.77344 4.53125C2.77344 4.20766 3.03578 3.94531 3.35937 3.94531L15.8594 3.94531Z" fill="black"/>
</g>
<defs>
<clipPath id="clip0_1_2797">
<rect width="20" height="20" fill="white" transform="translate(0 20) rotate(-90)"/>
</clipPath>
</defs>
</svg>
